<?xml version="1.0" standalone="no"?>
<!DOCTYPE svg PUBLIC "-//W3C//DTD SVG 20010904//EN"
 "http://www.w3.org/TR/2001/REC-SVG-20010904/DTD/svg10.dtd">
<svg version="1.0" xmlns="http://www.w3.org/2000/svg"
 width="700.000000pt" height="700.000000pt" viewBox="0 0 700.000000 700.000000"
 preserveAspectRatio="xMidYMid meet">
<metadata>
Created by potrace 1.14, written by Peter Selinger 2001-2017
</metadata>
<g transform="translate(0.000000,700.000000) scale(0.100000,-0.100000)"
fill="#000000" stroke="none">
<path d="M1108 6400 c-37 -5 -72 -11 -78 -15 -22 -14 -7 -48 51 -118 217 -257
356 -602 389 -962 24 -270 -33 -500 -175 -701 -62 -87 -199 -212 -288 -262
-226 -129 -501 -157 -740 -76 -39 13 -77 24 -84 24 -17 0 -50 -73 -93 -205
-105 -329 -116 -658 -34 -998 19 -78 17 -77 139 -103 247 -51 504 -198 683
-389 171 -183 276 -386 333 -643 21 -92 22 -127 26 -717 2 -341 6 -626 8 -632
3 -10 89 -13 384 -13 366 0 381 1 391 19 6 13 10 146 10 365 0 190 4 346 8
346 5 0 44 -9 88 -20 520 -134 1108 -151 1644 -49 101 20 320 72 354 85 15 6
16 -26 16 -354 0 -198 3 -367 6 -376 5 -14 49 -16 383 -16 280 0 380 3 389 12
9 9 12 145 12 548 l0 537 73 46 c477 302 844 749 996 1214 72 218 86 314 86
586 l0 238 40 10 c256 65 431 164 610 344 107 106 235 284 256 354 29 98 -38
191 -138 191 -67 0 -101 -29 -168 -142 -133 -228 -395 -419 -636 -463 l-36 -7
-32 93 c-101 289 -274 554 -525 805 -220 220 -437 376 -724 522 -379 193 -730
301 -1207 369 -94 13 -197 17 -475 18 l-355 1 -93 92 c-248 245 -595 396
-1017 442 -103 11 -378 11 -477 0z m1428 -1593 c60 -30 118 -92 147 -156 34
-72 31 -188 -6 -263 -115 -234 -442 -236 -565 -3 -23 43 -27 62 -27 140 0 75
4 97 24 135 42 81 115 143 201 171 50 17 172 4 226 -24z"/>
</g>
</svg>
